<?xml version="1.0"?>
<svg xmlns="http://www.w3.org/2000/svg" xmlns:xlink="http://www.w3.org/1999/xlink" version="1.1" id="Capa_1" x="0px" y="0px" viewBox="0 0 378.4 378.4" style="enable-background:new 0 0 378.4 378.4;" xml:space="preserve" width="512px" height="512px" class=""><g><path style="fill:#BCA934" d="M378.4,218.6L319.6,91c-18.8,8.4-40.8,0.4-49.2-18.4l-218.8,100c8.4,18.8,0.4,40.8-18.4,49.2  l58.4,127.6c18.8-8.4,40.8-0.4,49.2,18.4l218.8-100C351.6,249.4,359.6,227,378.4,218.6z" data-original="#F6D76D" class="" data-old_color="#BCA935"/><g>
	<path style="fill:#523C08" d="M154.4,339c-1.2-0.4-2.4-1.6-3.2-2.8c-2.4-5.6-7.2-10-12.8-12s-12-2-17.6,0.8c-2.8,1.2-6,0-7.2-2.8   l-45.2-98.4c-1.2-2.8,0-6,2.8-7.2c11.6-5.2,16.8-19.2,11.2-30.8c-1.2-2.8,0-6,2.8-7.2l168-76.8c1.2-0.8,2.8-0.8,4,0l0,0   c1.2,0.4,2.4,1.6,3.2,2.8c2.4,5.6,7.2,10,12.8,12s12,2,17.6-0.8c2.8-1.2,6,0,7.2,2.8l44.8,98c0.8,1.2,0.8,2.8,0,4   c-0.4,1.2-1.6,2.4-2.8,3.2c-5.6,2.4-10,7.2-12,12.8c-2,5.6-2,12,0.8,17.6c1.2,2.8,0,6-2.8,7.2l-168,76.8   C157.2,339.4,155.6,339.4,154.4,339z M80.4,223.8l40.8,89.2c13.6-3.6,29.2,2,37.2,14l158.8-72.8c-2-6.8-1.6-14,0.8-20.8   c2.4-6.8,7.2-12.4,12.8-16.4l-40.4-89.2c-13.6,3.6-29.2-2-37.2-14L94.4,186.6C98.4,200.6,92.8,215.8,80.4,223.8z" data-original="#DDB757" class="" data-old_color="#513B08"/>
	<path style="fill:#523C08" d="M109.6,207.4c-1.2-0.4-2.4-1.6-3.2-2.8c-1.2-2.8,0-6,2.8-7.2l138-63.2c2.8-1.2,6,0,7.2,2.8   s0,6-2.8,7.2L114,207.4C112.4,207.8,111.2,207.8,109.6,207.4z" data-original="#DDB757" class="" data-old_color="#513B08"/>
	<path style="fill:#523C08" d="M156.8,309.8c-1.2-0.4-2.4-1.6-3.2-2.8c-1.2-2.8,0-6,2.8-7.2l138-63.2c2.8-1.2,6,0,7.2,2.8   s0,6-2.8,7.2l-138,63.2C159.6,310.6,158,310.6,156.8,309.8z" data-original="#DDB757" class="" data-old_color="#513B08"/>
</g><polygon style="fill:#DB4F38;" points="189.2,189 209.2,205.4 234,198.2 224.8,222.6 239.6,244.2 213.6,242.6 197.6,263   190.8,238.2 166.4,229.4 188.4,215 " data-original="#DB4F38" class=""/><path style="fill:#876A23" d="M319.6,91c-18.8,8.4-40.8,0.4-49.2-18.4l-218.8,100c8.4,18.8,0.4,40.8-18.4,49.2l58.4,127.6  c2.4-1.2,4.8-2,7.6-2.4c16-9.6,37.2-7.6,51.2,6.4l192.8-192c-11.6-11.6-14.8-27.6-10.4-42.4L319.6,91z" data-original="#E2BF5A" class="active-path" data-old_color="#896B22"/><path style="fill:#BCA934" d="M322,110.2l-99.2-99.6c-14.4,14.4-38,14.4-52.4,0L0,181c14.4,14.4,14.4,38,0,52.4l99.2,99.2  c14.4-14.4,38-14.4,52.4,0l170-170C307.6,148.2,307.6,124.6,322,110.2z" data-original="#F6D76D" class="" data-old_color="#BCA935"/><g>
	<path style="fill:#523C08" d="M154,301c-1.2,0-2.8-0.4-4-1.6c-4.4-4.4-10-6.8-16.4-6.8c-6,0-12,2.4-16.4,6.8c-2,2-5.6,2-7.6,0   l-76-76.4c-2-2-2-5.6,0-7.6c9.2-9.2,9.2-23.6,0-32.8c-2-2-2-5.6,0-7.6L164.4,44.2c1.2-1.2,2.4-1.6,4-1.6l0,0c1.6,0,2.8,0.4,4,1.6   c4.4,4.4,10,6.8,16.4,6.8c6,0,12-2.4,16.4-6.8c2-2,5.6-2,7.6,0l76.4,76.4c1.2,1.2,1.6,2.4,1.6,4s-0.4,2.8-1.6,4   c-4.4,4.4-6.8,10-6.8,16.4c0,6,2.4,12,6.8,16.4c2,2,2,5.6,0,7.6L158,299.4C156.8,300.2,155.6,301,154,301z M44.8,218.6l69.2,69.2   c11.6-8.4,28.4-8.4,39.6,0l123.6-123.6c-4-5.6-6.4-12.8-6.4-20s2.4-14,6.4-20L208,55.4c-11.6,8.4-28.4,8.4-39.6,0L44.8,179   C53.2,191,53.2,207,44.8,218.6z" data-original="#DDB757" class="" data-old_color="#513B08"/>
	<path style="fill:#523C08" d="M66.4,193c-1.2,0-2.8-0.4-4-1.6c-2-2-2-5.6,0-7.6L169.6,76.6c2-2,5.6-2,7.6,0s2,5.6,0,7.6L70,191.4   C69.2,192.6,67.6,193,66.4,193z" data-original="#DDB757" class="" data-old_color="#513B08"/>
	<path style="fill:#523C08" d="M146,273c-1.2,0-2.8-0.4-4-1.6c-2-2-2-5.6,0-7.6l107.2-107.2c2-2,5.6-2,7.6,0c2,2,2,5.6,0,7.6   L150,271.4C148.8,272.2,147.6,273,146,273z" data-original="#DDB757" class="" data-old_color="#513B08"/>
</g><polygon style="fill:#DB4F38;" points="134.4,148.2 158.8,156.6 179.6,141 179.6,167 200.8,182.2 176,189.8 168,214.6 153.2,193.4   127.2,193.8 142.8,173 " data-original="#DB4F38" class=""/></g> </svg>
